<?xml version="1.0" encoding="utf-8"?>
<!-- Generator: Adobe Illustrator 27.4.1, SVG Export Plug-In . SVG Version: 6.00 Build 0)  -->
<svg version="1.1" id="Ebene_1" xmlns="http://www.w3.org/2000/svg" xmlns:xlink="http://www.w3.org/1999/xlink" x="0px" y="0px"
	 viewBox="0 0 1842.52 702.09" style="enable-background:new 0 0 1842.52 702.09;" xml:space="preserve">
<style type="text/css">
	.st0{fill:#3C3C3B;}
	.st1{fill:#E77A94;}
</style>
<g>
	<g>
		<path d="M1396.16,569.75H1389l-45.53-68.16v68.16h-5.45v-74.63h7.5l45.19,68.02v-68.02h5.45V569.75z"/>
		<path class="st0" d="M1396.16,569.75H1389l-45.53-68.16v68.16h-5.45v-74.63h7.5l45.19,68.02v-68.02h5.45V569.75z"/>
	</g>
	<g id="HATCH">
		<path class="st1" d="M1681.42,225c-13.81-14.92-28.59-22.37-44.29-22.37c-30.15,0-61.72,7.45-94.7,22.37l-37.7,17.43
			c-10.99,5.18-18.54,7.78-22.63,7.78c-3.61,0-5.41-1.49-5.41-4.49c0-1.87,0.78-3.97,2.36-6.34l19.56-28.52
			c6.12-9.27,11.44-17.98,16.01-26.16c4.56-8.16,8.16-15.56,10.82-22.13c2.67-6.62,4.02-12.06,4.02-16.39
			c0-4.33-1.65-7.92-4.94-10.83c-3.31-2.91-8.18-4.37-14.62-4.37c-6.45,0-14.21,2.36-23.34,7.09
			c-18.21,9.41-37.93,25.59-59.12,48.52c-26.31,28.55-46.87,57.81-61.81,87.72l-27.26,21.85c-5.48,4.23-10.79,8.11-15.89,11.66
			s-9.79,6.43-14.02,8.73c-4.23,2.27-7.49,3.4-9.79,3.4c-2.27,0-4.83-3.86-7.64-11.54c-1.25-3.28-2.53-7.02-3.78-11.18
			c-1.26-4.16-2.58-8.28-4-12.39c-5.65-15.23-17.12-22.84-34.41-22.84c-20.41,0-45.78,9.13-76.09,27.33l-19.55,11.54
			c-29.84,17.59-48.86,26.39-57.01,26.39c-8.32,0-12.48-2.6-12.48-7.75c0-5.2,2.91-10.55,8.7-16.03
			c20.43-19.79,52.64-38.87,96.6-57.27l29.69-12.72c8.32-3.59,13.81-7.14,16.48-10.59c2.67-3.45,4.02-8.63,4.02-15.56
			c0-10.04-5.11-15.08-15.32-15.08c-30.15,0-69.73,9.21-118.72,27.56c-51.83,19.65-89.79,41.24-113.81,64.79
			c-0.97,0.99-1.65,2.04-2.55,2.98c-4.17,3.12-8.63,6.48-13.69,10.22c-24.66,17.59-42.02,26.39-52.07,26.39
			c-14.45,0-21.68-11.54-21.68-34.62c0-5.49,2.36-13.98,7.07-25.44c2.51-6.13,3.76-10.99,3.76-14.61c0-6.6-4.4-14.28-13.2-23.08
			c-5.01-5.04-10.76-7.55-17.19-7.55c-13.5,0-33.36,11.78-59.61,35.35l-22.84,21.42c-22.47,21.38-37.46,32.04-45,32.04
			c-3.15,0-4.7-1.84-4.7-5.53c0-3.69,1.09-9.01,3.28-15.91l7.07-24.02c2.51-9.1,4.82-18.54,6.96-28.28
			c2.13-9.74,3.17-18.44,3.17-26.15c0-7.69-5.89-14.6-17.67-20.73c-6.76-3.45-15.53-5.2-26.39-5.2c-13.2,0-30.93,7.33-53.25,21.93
			c-9.72,6.46-19.81,13.9-30.26,22.4c-10.45,8.46-35.85,30.39-76.21,65.73c-6.12,5.35-10.83,7.99-14.14,7.99
			c-1.56,0-3.02-0.57-4.35-1.75c-1.35-1.18-2.01-2.84-2.01-4.96c0-2.13,6.83-16.69,20.5-43.7c6.43-12.25,9.64-21.35,9.64-27.33
			c0-13.81-11.73-20.71-35.21-20.71c-23.48,0-43.87,9.27-61.15,27.81c-7.99,8.46-15.16,18.49-21.42,30.03
			c-1.38,2.51-2.18,5.49-3.46,8.09c-2.83,2.01-5.51,3.81-8.56,6.15l-21.45,16.74c-45.07,35.96-84.58,53.96-118.51,53.96
			c-14.59,0-27.1-4.57-37.46-13.67c-4.7-4.25-8.37-9.08-10.95-14.49c-2.6-5.41-3.9-10.99-3.9-16.72c0-5.75,2.67-12.22,8.02-19.43
			c6.43-8.8,14.3-14.85,23.55-18.16c13.36,5.34,30.31,8.02,50.91,8.02c15.06,0,28.73-4.56,40.97-13.67
			c6.29-4.71,11.47-10.57,15.56-17.54c4.09-7,6.13-14.4,6.13-22.25c0-7.87-3.15-14.07-9.44-18.64c-2.81-2.03-6.15-3.64-10-4.82
			c-3.85-1.18-8.61-1.77-14.26-1.77s-15.16,1.02-28.52,3.05c-30.92,4.74-63.44,15.03-97.51,30.9
			c-43.2,19.79-71.96,42.56-86.24,68.34c-4.09,7.05-7.25,14.52-9.55,22.37c-2.27,7.85-3.41,16.98-3.41,27.33
			c0,10.36,3.85,21.66,11.54,33.91c3.93,6.29,8.79,12.25,14.61,17.92c5.82,5.63,12.67,10.64,20.62,14.95
			c7.92,4.33,16.88,7.78,26.86,10.36c9.96,2.6,22.54,3.9,37.7,3.9s31.21-1.96,48.16-5.89c44.76-10.05,85.53-28.75,122.28-56.09
			c3.02-2.13,6.13-5.06,9.2-7.4c-0.71,7.24-1.89,14.97-1.89,21.54c0,11.96,4.95,22.16,14.85,30.64c9.1,7.99,18.14,12.01,27.1,12.01
			c18.99,0,43.58-12.01,73.73-36.04l29.46-24.5l56.07-49.02c5.96-5.18,11.07-9.44,15.32-12.72c4.23-3.28,7.14-4.94,8.7-4.94
			c1.58,0,2.36,0.62,2.36,1.89c0,3.59-3.14,14.35-9.43,32.25l-20.24,55.61c-4.4,12.72-6.6,20.71-6.6,24.02
			c0,8.32,3.6,14.61,10.83,18.85c3.15,2.06,6.74,3.5,10.83,4.37c4.09,0.85,8.44,1.28,13.07,1.28c4.64,0,9.23-0.55,13.79-1.66
			c8.97-2.03,36.91-19.53,83.87-52.54l68.55-46.39c0,16.95,2.44,31.5,7.31,43.58c8.32,21.04,24.11,31.57,47.36,31.57
			c20.26,0,42.96-6.43,68.08-19.32c9.2-4.8,18-10.38,26.72-16.1c3.47,10.07,8.86,19.51,16.41,28.14
			c14.76,17.12,33.22,25.68,55.35,25.68c17.29,0,43.2-9.46,77.75-28.28l28.99-16.5l50.17-30.86l5.65,20.5
			c4.71,17.12,11.07,29.51,19.08,37.22c9.74,9.13,25.75,9.5,48.08,1.18c6.5-2.46,13.2-5.86,19.86-9.17
			c-6.17,14-11.28,27.85-14.92,41.57c-4.09,15.32-6.12,30.86-6.12,46.63c0,15.8,4.23,28.83,12.72,39.14
			c8.47,10.28,20.1,15.41,34.86,15.41c5.98,0,11.4-2.43,16.27-7.31c9.1-8.8,18.14-25.68,27.09-50.65l28.5-80.58
			c5.34-15.07,11.39-30.22,18.14-45.45c9.43-5.67,37.24-21.75,83.42-48.31c13.18-7.21,28.49-14.45,45.92-21.68
			c8.33-3.59,16.22-6.67,23.69-9.17c7.45-2.51,14.64-4.52,21.54-6.01c6.93-1.49,11.23,1.75,12.96,9.79
			c0.81,3.76-3.93,8.94-14.11,15.54l-9.9,5.41c-5.49,2.98-36.61,19.01-93.29,48.05c-9.26,4.73-16.5,8.18-21.68,10.38
			c-20.88,9.27-31.33,20.27-31.33,32.99c0,9.41,4.71,16.74,14.14,21.9c9.41,5.2,24.52,7.8,45.35,7.8c20.81,0,50.3-9.91,88.46-29.7
			l33.93-18.61c11.14-6.46,21.99-12.96,32.51-19.55l29.21-19.32c21.83-14.45,32.75-35.02,32.75-61.74
			C1702.39,256.26,1695.39,240.09,1681.42,225z"/>
	</g>
	<g>
		<path class="st0" d="M462.12,571.12c-5.32,0-10.17-0.93-14.55-2.79c-4.39-1.86-8.14-4.49-11.28-7.87
			c-3.14-3.38-5.55-7.47-7.26-12.27c-1.7-4.79-2.56-10.12-2.56-15.98c0-5.91,0.86-11.22,2.59-15.95c1.73-4.73,4.15-8.76,7.26-12.1
			c3.11-3.34,6.83-5.91,11.14-7.7c4.32-1.79,9.09-2.69,14.31-2.69c4.09,0,7.91,0.51,11.45,1.53c3.54,1.02,6.7,2.48,9.47,4.36
			c2.77,1.89,5.07,4.15,6.88,6.78c1.82,2.64,3.07,5.57,3.75,8.79h-5.86c-0.36-2.18-1.24-4.24-2.62-6.17
			c-1.39-1.93-3.19-3.62-5.42-5.08c-2.23-1.45-4.82-2.61-7.77-3.48c-2.95-0.86-6.2-1.3-9.75-1.3c-4.36,0-8.36,0.71-12,2.11
			c-3.64,1.41-6.76,3.51-9.37,6.3c-2.61,2.79-4.65,6.25-6.1,10.36c-1.45,4.11-2.18,8.85-2.18,14.21c0,5.32,0.73,10.05,2.18,14.21
			c1.45,4.16,3.49,7.67,6.1,10.53c2.61,2.86,5.75,5.03,9.41,6.51c3.66,1.48,7.69,2.22,12.1,2.22c6.18,0,11.54-1.18,16.08-3.54
			c4.54-2.36,8.38-5.63,11.52-9.81v-13.43h-20.58v-5.45h26.04v36.33h-3.14l-2.39-9.95c-1.73,2.09-3.64,3.85-5.73,5.28
			c-2.09,1.43-4.31,2.59-6.65,3.48c-2.34,0.89-4.78,1.53-7.33,1.94C467.35,570.91,464.76,571.12,462.12,571.12z"/>
		<path class="st0" d="M589.22,569.75h-6l-7.43-19.83c-0.73-1.91-1.53-3.7-2.42-5.38c-0.89-1.68-1.92-3.15-3.1-4.4
			c-1.18-1.25-2.53-2.24-4.06-2.96c-1.52-0.73-3.31-1.09-5.35-1.09h-26.1v33.67h-5.45v-74.63h33.6c3.14,0,6.17,0.28,9.1,0.85
			c2.93,0.57,5.54,1.58,7.84,3.03c2.29,1.45,4.12,3.47,5.49,6.03c1.36,2.57,2.04,5.85,2.04,9.85c0,2.5-0.31,4.83-0.92,6.99
			c-0.61,2.16-1.54,4.09-2.79,5.79c-1.25,1.7-2.84,3.16-4.77,4.36c-1.93,1.2-4.19,2.08-6.78,2.62c1.41,1.09,2.57,2.14,3.48,3.14
			c0.91,1,1.69,2.07,2.35,3.2c0.66,1.14,1.25,2.39,1.77,3.75c0.52,1.36,1.12,2.93,1.81,4.7L589.22,569.75z M534.76,530.63h25.9
			c3.68,0,6.84-0.27,9.47-0.82c2.63-0.55,4.8-1.44,6.51-2.69c1.7-1.25,2.96-2.87,3.78-4.87c0.82-2,1.23-4.45,1.23-7.36
			c0-5.13-1.62-8.8-4.87-11.01c-3.25-2.2-8.1-3.31-14.55-3.31h-27.47V530.63z"/>
		<path class="st0" d="M681.62,569.75h-6.54l-9.13-23.99h-36.74c-1.32,3.77-2.75,7.76-4.29,11.96c-1.54,4.2-3.02,8.21-4.43,12.03
			h-5.79c2.45-6.45,4.87-12.77,7.26-18.95c2.39-6.18,4.76-12.32,7.12-18.44c2.36-6.11,4.74-12.26,7.12-18.44
			c2.39-6.18,4.8-12.47,7.26-18.88h7.7L681.62,569.75z M664.38,541.47l-17.31-41.51l-16.43,41.51H664.38z"/>
		<path class="st0" d="M758.48,500.57h-42.87v28.01h37.28v5.45h-37.28v35.71h-5.45v-74.63h48.32V500.57z"/>
		<path class="st0" d="M799.29,569.75h-5.45v-74.63h5.45V569.75z"/>
		<path class="st0" d="M895.38,569.75h-7.29l-29.78-40.76l-15.2,14.72v26.04h-5.45v-74.63h5.45v41.03l42.32-41.03h7.57l-30.74,29.85
			L895.38,569.75z"/>
		<path class="st0" d="M985.33,531.86c0,25.26-12.56,37.9-37.69,37.9h-22.56v-74.56h22.56c12.58,0,22.01,3.03,28.29,9.1
			C982.19,510.35,985.33,519.54,985.33,531.86z M979.53,531.86c0-4.91-0.49-9.29-1.47-13.15c-0.98-3.86-2.69-7.15-5.15-9.85
			c-2.45-2.7-5.74-4.76-9.85-6.17c-4.11-1.41-9.3-2.11-15.57-2.11h-16.97v63.73h16.97c6.22,0,11.39-0.73,15.51-2.18
			c4.11-1.45,7.39-3.58,9.85-6.37c2.45-2.79,4.18-6.19,5.18-10.19C979.03,541.56,979.53,536.99,979.53,531.86z"/>
		<path class="st0" d="M1072.35,569.75h-53.91v-74.63h52.07v5.45h-46.62v27.6h43.69v5.45h-43.69v30.67h48.46V569.75z"/>
		<path class="st0" d="M1133.19,571.12c-5.04,0-9.45-0.53-13.22-1.6c-3.77-1.07-6.94-2.59-9.51-4.57c-2.57-1.98-4.53-4.36-5.9-7.16
			s-2.16-5.94-2.39-9.44h5.38c0.54,3.36,1.57,6.16,3.07,8.38c1.5,2.23,3.35,4,5.56,5.32c2.2,1.32,4.71,2.25,7.53,2.79
			c2.82,0.55,5.82,0.82,9,0.82c3.32,0,6.3-0.35,8.96-1.06c2.66-0.7,4.93-1.73,6.82-3.07c1.88-1.34,3.33-2.95,4.33-4.84
			c1-1.89,1.5-4.01,1.5-6.37c0-2.5-0.43-4.6-1.29-6.3c-0.86-1.7-2.32-3.19-4.36-4.46c-2.04-1.27-4.74-2.41-8.08-3.41
			c-3.34-1-7.49-2.02-12.44-3.07c-4.09-0.91-7.6-1.95-10.53-3.14c-2.93-1.18-5.35-2.56-7.26-4.12c-1.91-1.57-3.32-3.36-4.23-5.38
			c-0.91-2.02-1.36-4.37-1.36-7.05c0-2.91,0.61-5.57,1.84-7.97c1.23-2.41,2.96-4.48,5.21-6.2c2.25-1.73,4.95-3.07,8.11-4.02
			c3.16-0.95,6.65-1.43,10.46-1.43c3.82,0,7.32,0.44,10.5,1.33c3.18,0.89,5.96,2.17,8.35,3.85c2.38,1.68,4.32,3.73,5.79,6.13
			c1.48,2.41,2.42,5.14,2.83,8.18h-5.25c-0.5-2-1.32-3.86-2.45-5.59c-1.14-1.73-2.6-3.21-4.4-4.46c-1.79-1.25-3.93-2.23-6.41-2.93
			c-2.48-0.7-5.31-1.06-8.49-1.06c-6.68,0-11.73,1.23-15.17,3.68c-3.43,2.45-5.15,5.82-5.15,10.09c0,1.95,0.32,3.66,0.95,5.11
			c0.64,1.46,1.71,2.76,3.24,3.92c1.52,1.16,3.53,2.18,6.03,3.07c2.5,0.89,5.61,1.72,9.34,2.49c2.18,0.46,4.43,0.93,6.75,1.43
			c2.32,0.5,4.58,1.09,6.78,1.77c2.2,0.68,4.3,1.52,6.3,2.52c2,1,3.74,2.23,5.21,3.68c1.48,1.45,2.66,3.19,3.54,5.21
			c0.89,2.02,1.33,4.42,1.33,7.19c0,3.18-0.67,6.1-2.01,8.76c-1.34,2.66-3.2,4.95-5.59,6.88c-2.39,1.93-5.23,3.43-8.52,4.5
			C1140.63,570.58,1137.05,571.12,1133.19,571.12z"/>
		<path class="st0" d="M1200.99,569.75h-5.45v-74.63h5.45V569.75z"/>
		<path class="st0" d="M1271.38,571.12c-5.32,0-10.17-0.93-14.55-2.79c-4.39-1.86-8.14-4.49-11.28-7.87
			c-3.14-3.38-5.56-7.47-7.26-12.27c-1.7-4.79-2.56-10.12-2.56-15.98c0-5.91,0.86-11.22,2.59-15.95c1.73-4.73,4.15-8.76,7.26-12.1
			c3.11-3.34,6.83-5.91,11.14-7.7c4.32-1.79,9.09-2.69,14.31-2.69c4.09,0,7.91,0.51,11.45,1.53c3.54,1.02,6.7,2.48,9.47,4.36
			c2.77,1.89,5.07,4.15,6.88,6.78c1.82,2.64,3.07,5.57,3.75,8.79h-5.86c-0.36-2.18-1.24-4.24-2.62-6.17
			c-1.39-1.93-3.19-3.62-5.42-5.08c-2.23-1.45-4.82-2.61-7.77-3.48c-2.95-0.86-6.2-1.3-9.75-1.3c-4.36,0-8.36,0.71-12,2.11
			c-3.64,1.41-6.76,3.51-9.37,6.3c-2.61,2.79-4.65,6.25-6.1,10.36c-1.45,4.11-2.18,8.85-2.18,14.21c0,5.32,0.73,10.05,2.18,14.21
			c1.45,4.16,3.49,7.67,6.1,10.53c2.61,2.86,5.75,5.03,9.41,6.51c3.66,1.48,7.69,2.22,12.1,2.22c6.18,0,11.54-1.18,16.08-3.54
			c4.54-2.36,8.38-5.63,11.52-9.81v-13.43h-20.58v-5.45h26.04v36.33h-3.13l-2.39-9.95c-1.73,2.09-3.64,3.85-5.73,5.28
			c-2.09,1.43-4.31,2.59-6.64,3.48c-2.34,0.89-4.78,1.53-7.33,1.94C1276.61,570.91,1274.02,571.12,1271.38,571.12z"/>
	</g>
</g>
</svg>
