<?xml version="1.0" encoding="UTF-8"?>
<svg id="Ebene_1" data-name="Ebene 1" xmlns="http://www.w3.org/2000/svg" viewBox="0 0 1176.27 469.6">
  <defs>
    <style>
      .cls-1 {
        fill: #575756;
      }

      .cls-2 {
        fill: #62b55a;
      }
    </style>
  </defs>
  <path class="cls-1" d="M70.34,283.43c0-4.16,1.78-5.95,5.95-5.95h35.51c29.55,0,44.43,14.28,44.43,35.11,0,13.29-10.31,26.98-21.82,30.16v.79s27.77,6.75,27.77,32.93c0,27.57-18.45,39.87-51.78,39.87h-34.12c-4.17,0-5.95-1.78-5.95-5.95v-126.96ZM110.81,337.39c16.07,0,27.37-10.31,27.37-23.21,0-14.68-8.33-21.62-28.17-21.62h-22.22v44.83h23.01ZM116.76,401.26c17.66,0,27.37-9.92,27.37-25.59,0-14.48-10.31-23.21-30.75-23.21h-25.59v48.8h28.96Z"/>
  <path class="cls-1" d="M197.9,283.43c0-4.16,1.78-5.95,5.95-5.95h33.32c30.95,0,47.81,10.12,47.81,35.11,0,17.06-8.93,27.97-22.81,33.53v.79c8.33,2.78,12.7,11.7,17.85,24.8l15.47,39.08c.4,1.19.6,2.18.6,2.78,0,1.98-2.58,3.17-8.33,3.17h-1.99c-3.96,0-7.14-1.19-7.93-3.17l-15.08-38.88c-5.95-15.47-14.08-19.44-29.55-19.44h-17.86v57.13c0,2.78-2.38,4.36-7.93,4.36h-1.59c-5.55,0-7.93-1.58-7.93-4.36v-128.94ZM241.54,340.17c14.28,0,25.39-11.31,25.39-24.4,0-16.07-10.71-23.21-26.78-23.21h-24.8v47.61h26.19Z"/>
  <path class="cls-1" d="M326.04,281.45c0-2.78,2.38-4.37,7.93-4.37h1.59c5.55,0,7.93,1.59,7.93,4.37v91.05c0,17.66,15.67,29.95,36.7,29.95s36.7-12.49,36.7-29.95v-91.05c0-2.78,2.38-4.37,7.93-4.37h1.59c5.55,0,7.93,1.59,7.93,4.37v90.46c0,28.57-19.24,45.63-54.15,45.63s-54.16-17.06-54.16-45.63v-90.46Z"/>
  <path class="cls-1" d="M536.32,276.29c19.64,0,37.89,6.94,37.89,12.3,0,3.37-4.16,11.5-6.74,11.5-2.18,0-11.71-8.73-30.75-8.73-31.74,0-46.62,16.66-46.62,55.74s14.68,55.35,45.82,55.35c20.43,0,31.54-9.92,34.12-9.92s6.94,8.33,6.94,10.71c0,5.35-17.85,14.28-41.06,14.28-43.44,0-63.88-22.22-63.88-70.62s21.82-70.62,64.27-70.62"/>
  <path class="cls-1" d="M612.69,281.45c0-2.78,2.38-4.37,7.93-4.37h1.59c5.55,0,7.93,1.59,7.93,4.37v60.7h.8l48.8-62.29c1.79-2.18,6.35-2.78,10.71-2.78h1.99c4.76,0,6.94,1.19,6.94,2.58,0,.99-.6,2.38-1.98,3.96l-49.59,61.89,60.11,65.27c1.39,1.59,1.78,2.38,1.78,3.17,0,2.18-2.58,2.78-8.73,2.78h-2.38c-4.36,0-8.53,0-10.91-2.58l-56.73-63.88h-.8v62.09c0,2.78-2.38,4.36-7.93,4.36h-1.59c-5.55,0-7.93-1.58-7.93-4.36v-130.93Z"/>
  <path class="cls-1" d="M735.48,281.45c0-2.78,2.38-4.37,7.93-4.37h4.16c4.37,0,6.35.99,8.33,3.77l63.28,95.62,5.95,11.11v-106.13c0-2.78,2.38-4.37,7.93-4.37h1.39c5.55,0,7.93,1.59,7.93,4.37v130.93c0,2.78-2.38,4.36-7.93,4.36h-3.96c-3.77,0-5.75-.99-6.95-2.78l-65.46-98.79-5.35-10.12v107.32c0,2.78-2.38,4.36-7.94,4.36h-1.39c-5.55,0-7.93-1.58-7.93-4.36v-130.93Z"/>
  <path class="cls-1" d="M889.42,283.43c0-4.16,1.79-5.95,5.95-5.95h69.23c2.78,0,3.97,1.79,3.97,5.95v3.17c0,4.16-1.19,5.95-3.97,5.95h-57.73v45.23h51.78c2.78,0,3.97,1.78,3.97,5.95v3.17c0,4.17-1.19,5.95-3.97,5.95h-51.78v48.4h57.93c2.78,0,3.96,1.78,3.96,5.95v3.18c0,4.16-1.19,5.95-3.96,5.95h-69.43c-4.16,0-5.95-1.78-5.95-5.95v-126.96Z"/>
  <path class="cls-1" d="M1007.64,283.43c0-4.16,1.78-5.95,5.95-5.95h33.32c30.95,0,47.81,10.12,47.81,35.11,0,17.06-8.93,27.97-22.81,33.53v.79c8.33,2.78,12.69,11.7,17.85,24.8l15.47,39.08c.4,1.19.6,2.18.6,2.78,0,1.98-2.58,3.17-8.33,3.17h-1.98c-3.97,0-7.14-1.19-7.94-3.17l-15.08-38.88c-5.95-15.47-14.08-19.44-29.55-19.44h-17.85v57.13c0,2.78-2.38,4.36-7.94,4.36h-1.59c-5.55,0-7.93-1.58-7.93-4.36v-128.94ZM1051.29,340.17c14.28,0,25.39-11.31,25.39-24.4,0-16.07-10.71-23.21-26.78-23.21h-24.79v47.61h26.18Z"/>
  <path class="cls-1" d="M358.34,291.28v-9.78c0-2.69,2.31-4.22,7.67-4.22h.77c5.37,0,7.67,1.54,7.67,4.22v9.78c0,2.68-2.3,4.22-7.67,4.22h-.77c-5.37,0-7.67-1.54-7.67-4.22M385.95,291.28v-9.78c0-2.69,2.3-4.22,7.67-4.22h.77c5.37,0,7.67,1.54,7.67,4.22v9.78c0,2.68-2.3,4.22-7.67,4.22h-.77c-5.37,0-7.67-1.54-7.67-4.22"/>
  <path class="cls-1" d="M70.47,178.5c0-.97.84-1.53,2.78-1.53h.55c1.95,0,2.78.56,2.78,1.53v19.67h25.15v-19.67c0-.97.84-1.53,2.78-1.53h.56c1.95,0,2.78.56,2.78,1.53v45.86c0,.97-.83,1.53-2.78,1.53h-.56c-1.95,0-2.78-.56-2.78-1.53v-20.92h-25.15v20.92c0,.97-.84,1.53-2.78,1.53h-.55c-1.95,0-2.78-.56-2.78-1.53v-45.86Z"/>
  <path class="cls-1" d="M119.19,223.74l16.47-45.66c.28-.83,1.39-1.11,2.78-1.11h2.02c1.39,0,2.5.28,2.78,1.11l16.47,45.73c.14.34.21.62.21.9,0,.7-.9,1.18-2.99,1.18h-.56c-1.39,0-2.5-.28-2.78-1.11l-4.1-11.39h-20.43l-3.96,11.39c-.28.84-1.39,1.11-2.78,1.11h-.35c-2.08,0-2.99-.42-2.99-1.18,0-.28.07-.56.2-.97M147.62,208.1l-7.3-20.71-.9-4.03-1.11,4.03-7.29,20.71h16.61Z"/>
  <path class="cls-1" d="M170,178.5c0-.97.84-1.53,2.78-1.53h.55c1.95,0,2.78.56,2.78,1.53v31.9c0,6.18,5.49,10.49,12.86,10.49s12.86-4.38,12.86-10.49v-31.9c0-.97.84-1.53,2.78-1.53h.55c1.95,0,2.78.56,2.78,1.53v31.69c0,10.01-6.74,15.99-18.97,15.99s-18.97-5.98-18.97-15.99v-31.69Z"/>
  <path class="cls-1" d="M222.2,217.35c.9,0,4.8,3.54,11.95,3.54,5.28,0,9.1-3.26,9.1-8.41,0-12.02-22.58-6.67-22.58-23,0-7.71,6.11-12.79,15.42-12.79,3.96,0,11.19,1.74,11.19,4.24,0,1.04-1.53,3.68-2.22,3.68-1.04,0-3.61-2.64-9.1-2.64-5.21,0-8.96,2.5-8.96,7.78,0,10.14,22.58,5.49,22.58,22.72,0,8.55-6.05,13.69-15.43,13.69-8.13,0-14.38-3.2-14.38-5.07,0-1.11,1.67-3.75,2.43-3.75"/>
  <path class="cls-1" d="M257.09,179.06c-.14-.35-.21-.63-.21-.91,0-.69.91-1.18,2.99-1.18h.62c1.39,0,2.5.28,2.78,1.11l12.86,37.11.77,3.61.9-3.68,12.86-37.04c.28-.83,1.39-1.11,2.78-1.11h.41c2.09,0,2.99.42,2.99,1.18,0,.28-.07.56-.21.97l-15.91,45.65c-.28.84-1.39,1.11-2.78,1.11h-2.15c-1.39,0-2.5-.28-2.78-1.11l-15.91-45.72Z"/>
  <path class="cls-1" d="M308.52,179.19c0-1.46.63-2.08,2.08-2.08h24.25c.97,0,1.39.63,1.39,2.08v1.11c0,1.46-.42,2.09-1.39,2.09h-20.22v15.84h18.14c.97,0,1.39.63,1.39,2.08v1.11c0,1.46-.42,2.09-1.39,2.09h-18.14v16.96h20.29c.97,0,1.39.62,1.39,2.08v1.11c0,1.46-.42,2.08-1.39,2.08h-24.32c-1.46,0-2.08-.63-2.08-2.08v-44.47Z"/>
  <path class="cls-1" d="M349.94,179.19c0-1.46.63-2.08,2.08-2.08h11.68c10.84,0,16.75,3.55,16.75,12.3,0,5.98-3.13,9.8-7.99,11.75v.28c2.92.97,4.45,4.1,6.26,8.69l5.42,13.69c.14.42.21.77.21.97,0,.69-.9,1.11-2.92,1.11h-.69c-1.39,0-2.5-.42-2.78-1.11l-5.28-13.62c-2.08-5.42-4.94-6.81-10.35-6.81h-6.26v20.02c0,.97-.83,1.53-2.78,1.53h-.56c-1.95,0-2.78-.55-2.78-1.53v-45.17ZM365.23,199.07c5,0,8.9-3.96,8.9-8.55,0-5.63-3.75-8.13-9.38-8.13h-8.69v16.68h9.17Z"/>
  <path class="cls-1" d="M390.32,179.13c-.07-.28-.21-.7-.21-.97,0-.69.91-1.18,2.99-1.18h.69c1.39,0,2.57.28,2.78,1.11l8.83,34.19c.49,1.88,1.18,6.25,1.25,6.46l10.08-40.58c.21-.9,1.32-1.18,2.71-1.18h1.11c1.39,0,2.5.28,2.71,1.18l8.62,34.19c.63,2.43,1.18,6.39,1.18,6.39l10.08-40.65c.2-.83,1.39-1.11,2.78-1.11h.42c2.08,0,2.99.42,2.99,1.18,0,.14-.13.7-.21.97l-12.02,45.65c-.21.84-1.39,1.11-2.78,1.11h-2.85c-1.39,0-2.57-.28-2.78-1.11l-7.57-28.28-1.46-9.03-1.46,9.03-7.57,28.28c-.21.84-1.39,1.11-2.78,1.11h-2.85c-1.39,0-2.57-.28-2.78-1.11l-11.89-45.65Z"/>
  <path class="cls-1" d="M454.89,223.74l16.47-45.66c.28-.83,1.39-1.11,2.78-1.11h2.01c1.39,0,2.5.28,2.78,1.11l16.47,45.73c.14.34.21.62.21.9,0,.7-.9,1.18-2.99,1.18h-.56c-1.39,0-2.5-.28-2.78-1.11l-4.1-11.39h-20.43l-3.96,11.39c-.28.84-1.39,1.11-2.78,1.11h-.35c-2.08,0-2.99-.42-2.99-1.18,0-.28.07-.56.21-.97M483.31,208.1l-7.3-20.71-.9-4.03-1.11,4.03-7.3,20.71h16.61Z"/>
  <path class="cls-1" d="M506.66,178.5c0-.97.83-1.53,2.78-1.53h.55c1.95,0,2.78.56,2.78,1.53v41.97h19.11c.97,0,1.39.63,1.39,2.08v1.11c0,1.46-.41,2.08-1.39,2.08h-23.14c-1.46,0-2.08-.63-2.08-2.08v-45.17Z"/>
  <path class="cls-1" d="M553.16,182.39h-13.34c-.97,0-1.39-.63-1.39-2.08v-1.11c0-1.46.42-2.08,1.39-2.08h32.59c.97,0,1.39.62,1.39,2.08v1.11c0,1.46-.42,2.08-1.39,2.08h-13.13v41.97c0,.97-.84,1.53-2.78,1.53h-.56c-1.94,0-2.78-.55-2.78-1.53v-41.97Z"/>
  <path class="cls-1" d="M584.44,178.5c0-.97.83-1.53,2.78-1.53h.55c1.95,0,2.78.56,2.78,1.53v31.9c0,6.18,5.49,10.49,12.86,10.49s12.86-4.38,12.86-10.49v-31.9c0-.97.83-1.53,2.78-1.53h.56c1.95,0,2.78.56,2.78,1.53v31.69c0,10.01-6.74,15.99-18.97,15.99s-18.97-5.98-18.97-15.99v-31.69Z"/>
  <path class="cls-1" d="M637.88,178.5c0-.97.84-1.53,2.78-1.53h1.46c1.53,0,2.22.35,2.92,1.32l22.17,33.49,2.08,3.9v-37.18c0-.97.84-1.53,2.78-1.53h.49c1.95,0,2.78.56,2.78,1.53v45.86c0,.97-.83,1.53-2.78,1.53h-1.39c-1.32,0-2.02-.35-2.43-.97l-22.94-34.61-1.88-3.54v37.59c0,.97-.83,1.53-2.78,1.53h-.49c-1.95,0-2.78-.56-2.78-1.53v-45.86Z"/>
  <path class="cls-1" d="M711.55,176.69c6.88,0,13.27,2.43,13.27,4.31,0,1.18-1.46,4.03-2.36,4.03-.77,0-4.1-3.06-10.77-3.06-12.3,0-16.33,7.16-16.33,19.25,0,10.63,3.19,19.67,15.56,19.67,3.62,0,7.09-.42,8.97-.9v-14.04h-8.13c-.97,0-1.39-.63-1.39-2.08v-1.11c0-1.46.42-2.08,1.39-2.08h12.16c1.46,0,2.08.62,2.08,2.08v18.41c0,3.89-7.57,5-15.5,5-13.83,0-21.47-7.79-21.47-24.32s7.99-25.15,22.51-25.15"/>
  <polygon class="cls-2" points="1002.42 97.8 887.73 52.41 867.71 88.95 863.88 84.44 784.52 52.07 726.22 157.51 731.05 157.51 784.36 61.69 841.05 136.61 803.46 205.19 810.43 205.19 887.48 65.81 993.05 205.63 1101.08 226.96 1105.92 219.85 1002.42 97.8"/>
</svg>