<?xml version="1.0" encoding="UTF-8"?>
<svg id="Ebene_2" data-name="Ebene 2" xmlns="http://www.w3.org/2000/svg" viewBox="0 0 2984.05 1472.88">
  <g id="Ebene_1-2" data-name="Ebene 1">
    <g>
      <path d="M1161.66,169.84c-10.59,18.62-14.77,43.02-20.54,63.57-6.11,21.82-11.89,43.65-17.67,65.8-11.88,44.63-22.46,89.56-32.74,134.52-10.28,44.94-20.23,89.89-30.18,135.15-4.5,21.2-9.3,42.37-13.8,63.56-4.49,20.55-12.52,43.67-10.91,64.86.64,8.01,20.21,11.54,24.07,4.8,10.28-18.62,11.88-43.98,16.37-64.84,4.83-22.15,9.63-44.3,14.45-66.78,9.63-43.98,19.58-88.28,29.53-132.25,9.95-44,20.23-87.97,30.83-131.95,5.13-21.19,10.26-42.38,15.41-63.25,5.46-21.82,14.45-45.59,15.08-68.07,0-7.38-16.37-11.55-19.9-5.13"/>
      <path d="M1164.23,169.2c-3.54,74.79,0,149.92,1.61,224.72,1.92,84.76,3.84,169.5,8.97,253.94.66,9.3,27.3,15.73,30.51,6.09,32.74-107.86,71.58-213.81,108.83-320.07,18.62-52.64,36.28-105.3,52.64-158.59,16.7-54.25,34.03-108.81,49.13-163.4l-26.97-7.38c-9.63,111.06-22.79,221.82-35.64,332.58-12.83,109.49-29.53,219.26-34.35,329.38-2.25,52.97-4.81,105.94-7.05,158.92-1.29,24.71-1.29,49.76.3,74.79,1.62,22.15,3.21,50.4,13.82,70.63,11.87,22.47,37.23,18.3,50.39.32,17.98-24.07,29.22-54.58,41.09-81.86,48.49-110.12,85.4-224.72,109.8-342.54,1.92-9.3-23.75-15.74-25.69-6.75-20.53,96.96-48.79,192.31-85.07,284.76-14.44,36.92-30.18,73.52-47.83,108.83-4.5,10.28-10.26,19.91-17.01,28.9-.96,1.29-9.95,9.3-9.95,9.62l11.55,2.89c-.96-1.27-1.92-2.89-2.56-4.5-1.28-6.42-3.53-12.51-4.49-18.92-9.65-49.13-5.46-98.89-1.94-148.32,3.53-49.45,3.53-98.25,6.43-147.05,6.09-100.8,20.54-200.95,32.41-301.12,13.49-114.29,26.02-228.25,33.39-343.18.66-9.62-24.4-17.02-26.95-7.38-13.81,55.54-28.9,109.79-47.2,164.05-17.66,52.97-36.6,105.3-54.89,157.94-37.56,106.26-76.1,212.2-111.72,319.11l30.49,6.09c-2.88-83.78-6.09-167.26-8.99-251.04-2.57-75.77-3.21-152.49-13.79-227.93-1.62-5.15-18.95-9.62-19.27-3.54"/>
      <path d="M1686.54,221.2c-9.31,13.81-9.31,34.35-11.56,50.41-5.77,37.87-10.91,75.76-15.72,113.97-11.56,89.87-22.8,179.76-33.06,269.65-3.54,30.51-9.64,62.61-5.48,93.1.98,6.75,19.6,11.57,22.15,4.5,8.36-25.03,9.65-52.01,12.86-78.33,4.8-41.74,9.62-83.78,14.77-125.53,10.26-86.03,21.17-172.08,30.82-258.43,2.24-20.54,7.7-43.32,3.84-63.88-1.29-5.46-15.41-9.95-18.62-5.46"/>
      <path d="M1931.81,54.59c-14.12,57.14-19.27,117.17-26.64,175.6-8.03,61.32-15.08,122.65-22.48,183.96-14.45,121.66-28.57,243.35-42.36,365.02-3.54,32.41-7.4,64.51-10.93,96.94-3.21,30.18-7.38,60.36,6.74,88.3,2.9,6.09,27.3,10.91,24.72,1.27-7.37-28.24-3.86-55.85-.65-84.42,3.23-28.59,6.44-56.83,9.65-85.09,6.74-59.06,13.48-117.81,20.23-176.55,13.79-120.08,28.56-240.13,42.36-360.2,7.7-65.82,19.27-132.58,19.9-199.03.33-7.4-18.62-13.16-20.54-5.78"/>
      <path d="M1006.92,764.07c19.91-.33,38.52-6.74,57.79-12.2,35.31-9.63,70.62-19.58,105.93-28.9,72.24-18.94,145.44-34.02,218.63-48.47,156.02-30.5,312.68-57.46,469.98-78.65,28.26-3.86,56.83-7.7,85.4-11.56,8.99-1.29,17.98-2.58,26.97-3.21l10.59-.96c1.61,0,9.64,0,2.57-.64,14.45.96,7.7-10.91-2.88-11.56-1.92-.33-3.86-.64-6.11-.64-3.54-.32-7.05-.32-10.91-.32-7.71,0-15.41.63-23.44,1.28-24.07,1.6-48.15,4.17-71.91,7.38-71.28,9.32-142.21,20.23-212.85,31.78-161.47,26.01-323.6,53.94-482.17,94.08-39.18,9.95-78.02,20.53-116.54,31.77-20.23,5.77-47.51,8.99-63.88,22.79-5.15,3.86,10.58,8.36,12.83,8.03"/>
      <path d="M16.02,1429.39h15.27v-54.12h60.09v54.12h15.44v-115.54h-15.44v48.31H31.29v-48.31h-15.27v115.54h0ZM139.19,1313.85v115.54h15.27v-115.54h-15.27ZM187,1429.39h73.37l2.16-13.11h-60.26v-102.43h-15.27v115.54h0ZM280.12,1429.39h15.44v-47.48h27.39c22.58,0,38.84-11.95,38.84-34.36,0-21.08-15.44-33.7-37.85-33.7h-43.82v115.54h0ZM295.56,1326.8h27.22c13.61,0,23.24,6.97,23.24,21.08s-7.97,21.09-23.74,21.09h-26.73v-42.17h0ZM456.91,1362.33h-57.44v-35.36h60.26v-13.12h-75.2v115.54h76.03l1.99-13.11h-63.08v-40.84h57.44v-13.11h0ZM523.31,1378.59c20.75,0,25.4,7.14,25.4,23.58v2.32c0,10.96-.17,19.92,1.99,24.9h14.94c-1.99-4.81-1.66-14.94-1.66-22.91v-4.98c0-19.92-8.13-27.06-17.6-29.55,11.12-2.98,19.75-12.11,19.75-27.22,0-17.93-12.62-30.88-36.35-30.88h-45.15v115.54h15.11v-50.8h23.57ZM499.74,1326.8h26.89c15.6,0,23.57,6.97,23.57,19.26,0,12.95-7.64,19.59-25.4,19.59h-25.07v-38.85h0ZM617.1,1429.39h15.44v-102.42h37.35v-13.12h-89.97v13.12h37.18v102.42h0ZM677.69,1363.65v13.28h43.49v-13.28h-43.49ZM844.02,1429.39h14.94v-115.54h-22.08c-13.61,35.03-32.54,85.66-35.36,96.78h-.17c-3.98-14.61-20.09-60.92-33.2-96.78h-22.74v115.54h14.44v-45.98c0-19.92-.5-45.49-1.33-58.93h.5c5.15,19.75,24.57,75.36,34.53,104.91h13.78c13.28-36.35,31.87-85.82,36.85-104.58h.66c-.5,12.12-.83,33.86-.83,55.44v49.14h0ZM963.87,1362.33h-57.44v-35.36h60.26v-13.12h-75.2v115.54h76.03l1.99-13.11h-63.08v-40.84h57.44v-13.11h0ZM991.59,1429.39h40.67c33.53,0,54.94-24.73,54.94-58.93s-21.91-56.61-54.45-56.61h-41.16v115.54h0ZM1006.86,1326.97h24.23c28.22,0,40.01,21.08,40.01,43.82,0,26.06-12.78,45.65-40.01,45.65h-24.23v-89.47h0ZM1112.27,1313.85v115.54h15.27v-115.54h-15.27ZM1220.83,1394.7l12.78,34.69h16.43l-42.99-115.54h-18.76l-41.17,115.54h15.28l12.45-34.69h45.98ZM1178.83,1381.58c8.8-25.89,15.6-45.48,18.43-55.28h.16c2.49,8.8,8.47,24.9,19.59,55.28h-38.18ZM1283.41,1429.39v-24.57h-15.27v24.57h15.27ZM1307.98,1429.39h40.67c33.53,0,54.94-24.73,54.94-58.93s-21.91-56.61-54.45-56.61h-41.16v115.54h0ZM1323.25,1326.97h24.23c28.22,0,40.01,21.08,40.01,43.82,0,26.06-12.78,45.65-40.01,45.65h-24.23v-89.47h0ZM1501.03,1362.33h-57.43v-35.36h60.25v-13.12h-75.19v115.54h76.02l2-13.11h-63.08v-40.84h57.43v-13.11h0ZM1573.4,1299.74v173.14h13.28v-173.14h-13.28ZM1761.48,1429.39h14.94v-115.54h-22.08c-13.61,35.03-32.53,85.66-35.36,96.78h-.16c-3.99-14.61-20.09-60.92-33.2-96.78h-22.74v115.54h14.44v-45.98c0-19.92-.5-45.49-1.33-58.93h.5c5.14,19.75,24.57,75.36,34.53,104.91h13.77c13.28-36.35,31.88-85.82,36.86-104.58h.66c-.5,12.12-.83,33.86-.83,55.44v49.14h0ZM1855.77,1312.19c-35.03,0-54.28,26.4-54.28,59.43s18.92,59.43,52.95,59.43c36.35,0,54.12-28.22,54.12-60.09,0-34.36-20.26-58.77-52.79-58.77h0ZM1855.1,1325.31c25.4,0,37.52,21.08,37.52,45.98s-10.79,46.65-37.52,46.65c-24.9,0-37.51-21.92-37.51-46.82s11.45-45.81,37.51-45.81h0ZM1972.3,1378.59c20.75,0,25.4,7.14,25.4,23.58v2.32c0,10.96-.17,19.92,1.99,24.9h14.94c-1.99-4.81-1.66-14.94-1.66-22.91v-4.98c0-19.92-8.14-27.06-17.6-29.55,11.12-2.98,19.76-12.11,19.76-27.22,0-17.93-12.62-30.88-36.36-30.88h-45.15v115.54h15.11v-50.8h23.57ZM1948.73,1326.8h26.89c15.6,0,23.57,6.97,23.57,19.26,0,12.95-7.64,19.59-25.4,19.59h-25.06v-38.85h0ZM2042.02,1313.85v115.54h15.27v-115.54h-15.27ZM2113.39,1429.39h15.44v-102.42h37.35v-13.12h-89.97v13.12h37.18v102.42h0ZM2176.8,1429.39h88.15l2.16-13.11h-71.38l69.05-89.64v-12.79h-84.49v13.12h66.9l-70.39,90.63v11.79h0ZM2330.18,1429.39h15.27v-54.12h60.1v54.12h15.43v-115.54h-15.43v48.31h-60.1v-48.31h-15.27v115.54h0ZM2453.35,1313.85v115.54h15.28v-115.54h-15.28ZM2501.16,1429.39h73.37l2.16-13.11h-60.26v-102.43h-15.27v115.54h0ZM2594.28,1429.39h15.44v-47.48h27.39c22.58,0,38.85-11.95,38.85-34.36,0-21.08-15.44-33.7-37.85-33.7h-43.83v115.54h0ZM2609.72,1326.8h27.23c13.61,0,23.24,6.97,23.24,21.08s-7.97,21.09-23.74,21.09h-26.73v-42.17h0ZM2771.07,1362.33h-57.43v-35.36h60.26v-13.12h-75.2v115.54h76.03l1.99-13.11h-63.08v-40.84h57.43v-13.11h0ZM2837.47,1378.59c20.75,0,25.4,7.14,25.4,23.58v2.32c0,10.96-.17,19.92,1.99,24.9h14.94c-1.99-4.81-1.66-14.94-1.66-22.91v-4.98c0-19.92-8.13-27.06-17.6-29.55,11.13-2.98,19.76-12.11,19.76-27.22,0-17.93-12.62-30.88-36.35-30.88h-45.16v115.54h15.11v-50.8h23.57ZM2813.9,1326.8h26.89c15.6,0,23.57,6.97,23.57,19.26,0,12.95-7.63,19.59-25.39,19.59h-25.07v-38.85h0ZM2931.26,1429.39h15.44v-102.42h37.35v-13.12h-89.97v13.12h37.18v102.42h0Z"/>
      <path d="M78.68,1230.19l40.01-114.37h-34.36l-14.44,49.46c-4.81,15.77-7.8,26.4-9.96,38.35h-.5c-2.66-12.78-5.15-23.41-9.63-38.68l-14.11-49.13H0l39.18,114.37h39.51ZM129.98,1115.82v114.37h33.7v-114.37h-33.7ZM187.24,1230.19h48.64c37.52,0,57.93-25.4,57.93-58.43s-21.08-55.94-57.44-55.94h-49.14v114.37h0ZM220.78,1140.05h13.28c18.26,0,25.23,12.78,25.23,31.71,0,21.41-7.47,34.19-25.56,34.19h-12.95v-65.9h0ZM396.73,1159.14h-52.12v-18.42h54.28v-24.9h-86.49v114.37h86.65l3.82-24.9h-58.27v-21.41h52.12v-24.74h0ZM473.42,1113.66c-38.35,0-58.76,26.56-58.76,59.43s18.59,59.26,57.1,59.26,58.6-27.06,58.6-59.43c0-34.2-20.92-59.26-56.94-59.26h0ZM472.43,1137.89c17.43,0,23.57,14.45,23.57,35.36,0,19.42-5.81,34.86-23.24,34.86s-23.57-14.61-23.57-35.52,6.97-34.7,23.24-34.7h0ZM548.79,1230.19h33.03v-40.17h19.26c24.07,0,43.82-11.79,43.82-37.52,0-22.24-17.26-36.68-43.16-36.68h-52.95v114.37h0ZM581.82,1139.39h13.78c9.3,0,16.1,3.82,16.1,13.61s-6.64,13.45-16.1,13.45h-13.78v-27.06h0ZM705.16,1187.03c14.77,0,17.26,5.31,17.26,15.27v2.99c0,11.62.5,19.92,2.32,24.9h31.87c-1.16-4.98-1.49-14.11-1.49-21.25v-4.81c0-19.42-7.64-27.06-14.77-29.55,7.8-3.15,17.1-11.29,17.1-27.06,0-17.26-12.95-31.7-40.01-31.7h-56.61v114.37h32.54v-43.16h11.79ZM693.37,1139.22h15.6c10.29,0,15.11,4.48,15.11,12.12s-3.98,12.28-15.11,12.28h-15.6v-24.4h0ZM829.82,1113.66c-38.35,0-58.76,26.56-58.76,59.43s18.59,59.26,57.1,59.26,58.6-27.06,58.6-59.43c0-34.2-20.92-59.26-56.94-59.26h0ZM828.83,1137.89c17.43,0,23.57,14.45,23.57,35.36,0,19.42-5.81,34.86-23.24,34.86s-23.57-14.61-23.57-35.52,6.97-34.7,23.24-34.7h0ZM905.19,1230.19h48.64c37.52,0,57.93-25.4,57.93-58.43s-21.08-55.94-57.43-55.94h-49.14v114.37h0ZM938.72,1140.05h13.28c18.26,0,25.23,12.78,25.23,31.71,0,21.41-7.47,34.19-25.56,34.19h-12.95v-65.9h0ZM1029.51,1115.82v67.06c0,37.18,21.09,49.47,51.3,49.47s51.46-11.62,51.46-49.64v-66.89h-33.53v70.38c0,15.27-6.48,21.91-17.43,21.91-10.13,0-18.26-5.64-18.26-21.91v-70.38h-33.54ZM1154.51,1230.19h33.37v-35.52l9.96-10.3,27.55,45.82h39.18l-43.49-67.56,41.99-46.81h-39.67c-11.29,15.1-28.05,36.02-35.52,46.48v-46.48h-33.37v114.37h0ZM1301.58,1230.19h33.54v-89.47h32.37v-24.9h-98.61v24.9h32.7v89.47h0ZM1381.1,1115.82v114.37h33.69v-114.37h-33.69ZM1491.98,1113.66c-38.34,0-58.76,26.56-58.76,59.43s18.59,59.26,57.1,59.26,58.6-27.06,58.6-59.43c0-34.2-20.92-59.26-56.94-59.26h0ZM1490.99,1137.89c17.43,0,23.57,14.45,23.57,35.36,0,19.42-5.81,34.86-23.24,34.86s-23.57-14.61-23.57-35.52,6.97-34.7,23.24-34.7h0ZM1598.05,1230.19v-25.73c0-20.09-.16-42.16-1.16-52.95h.33c5.48,15.1,26.23,57.93,35.86,78.68h38.18v-114.37h-30.54v24.4c0,18.26.33,38.34,1.66,50.3h-.67c-4.81-14.11-22.24-48.97-34.19-74.7h-40.18v114.37h30.71ZM1773.18,1208.94c-11.62,0-15.93-6.97-15.93-13.78,0-6.3,3.32-10.12,6.3-12.61l23.74,21.74c-4.15,3.16-8.46,4.65-14.11,4.65h0ZM1823.31,1159.31l-18.09,23.74-13.61-12.79c12.95-7.13,21.41-14.77,21.41-27.39,0-16.1-13.44-28.88-36.68-28.88s-37.52,13.94-37.52,31.71c0,8.63,4.32,15.93,10.79,22.74-15.77,8.63-22.74,17.1-22.74,30.38,0,18.09,14.44,33.36,41.83,33.36,16.43,0,27.06-4.65,35.86-11.95l10.95,9.96h40.34l-32.87-30.71,31.21-40.17h-30.88ZM1777,1133.25c5.98,0,8.96,4.31,8.96,9.79,0,4.48-1.99,9.3-8.79,13.94-5.98-5.31-8.8-8.96-8.8-13.94,0-5.48,3.15-9.79,8.63-9.79h0ZM1909.3,1230.19h32.87v-42.33h49.3v-24.9h-49.3v-22.24h52.62v-24.9h-85.49v114.37h0ZM2065.83,1113.66c-38.34,0-58.76,26.56-58.76,59.43s18.59,59.26,57.1,59.26,58.6-27.06,58.6-59.43c0-34.2-20.91-59.26-56.94-59.26h0ZM2064.84,1137.89c17.43,0,23.57,14.45,23.57,35.36,0,19.42-5.81,34.86-23.24,34.86s-23.57-14.61-23.57-35.52,6.97-34.7,23.24-34.7h0ZM2162.11,1230.19h33.54v-89.47h32.37v-24.9h-98.61v24.9h32.7v89.47h0ZM2292.26,1113.66c-38.35,0-58.77,26.56-58.77,59.43s18.59,59.26,57.11,59.26,58.6-27.06,58.6-59.43c0-34.2-20.92-59.26-56.94-59.26h0ZM2291.26,1137.89c17.43,0,23.57,14.45,23.57,35.36,0,19.42-5.81,34.86-23.24,34.86s-23.57-14.61-23.57-35.52,6.97-34.7,23.24-34.7h0ZM2473.86,1164.62h-53.29v23.41h20.92v.83c0,7.47-2.99,19.92-19.75,19.92-18.6,0-24.07-17.6-24.07-35.53s4.81-35.85,23.9-35.85c13.61,0,17.76,7.63,19.42,13.61h33.2c-2.16-17.6-17.93-37.35-52.45-37.35-38.18,0-58.6,25.56-58.6,60.75,0,31.71,17.76,58.1,52.79,58.1,15.77,0,26.89-4.15,33.36-12.78.33,2.66,1.16,7.31,2.16,10.46h22.41v-65.57h0ZM2539.93,1187.03c14.77,0,17.26,5.31,17.26,15.27v2.99c0,11.62.5,19.92,2.33,24.9h31.87c-1.16-4.98-1.5-14.11-1.5-21.25v-4.81c0-19.42-7.63-27.06-14.77-29.55,7.8-3.15,17.1-11.29,17.1-27.06,0-17.26-12.95-31.7-40.01-31.7h-56.61v114.37h32.54v-43.16h11.79ZM2528.14,1139.22h15.61c10.29,0,15.1,4.48,15.1,12.12s-3.98,12.28-15.1,12.28h-15.61v-24.4h0ZM2677.37,1207.95l6.97,22.24h35.03l-37.52-114.37h-43.32l-36.19,114.37h32.54l6.64-22.24h35.85ZM2647.16,1183.05c4.48-16.44,8.96-32.71,11.62-44.99h.5c2.49,11.12,6.97,27.06,12.28,44.99h-24.4ZM2731.32,1230.19h32.87v-42.33h49.3v-24.9h-49.3v-22.24h52.62v-24.9h-85.49v114.37h0ZM2833.58,1115.82v114.37h33.69v-114.37h-33.69ZM2975.17,1159.14h-52.12v-18.42h54.28v-24.9h-86.49v114.37h86.66l3.81-24.9h-58.26v-21.41h52.12v-24.74h0Z"/>
    </g>
  </g>
</svg>