<?xml version="1.0" encoding="UTF-8"?>
<svg id="Ebene_1" data-name="Ebene 1" xmlns="http://www.w3.org/2000/svg" viewBox="0 0 1080.34 274.1">
  <defs>
    <style>
      .cls-1 {
        fill: #fff;
      }
    </style>
  </defs>
  <path class="cls-1" d="M61.85,76.61h10.31c1.55,0,2.58.68,2.58,1.7v23.83c0,1.02-1.03,1.7-2.58,1.7h-10.31v166.84c0,1.02-1.03,1.7-2.58,1.7H15.46c-1.55,0-2.58-.68-2.58-1.7V103.85H2.58c-1.55,0-2.58-.68-2.58-1.7v-23.83c0-1.02,1.03-1.7,2.58-1.7h10.31v-22.13C12.89,17.02,12.89,0,54.12,0h18.04c1.55,0,2.58.68,2.58,1.7v27.24c0,1.02-1.03,1.7-2.58,1.7h-10.31v45.97Z"/>
  <path class="cls-1" d="M194.88,131.09v44.26c0,1.02-1.03,1.7-2.58,1.7h-41.23c-1.55,0-2.58-.68-2.58-1.7v-56.18h-10.31v151.52c0,1.02-1.03,1.7-2.58,1.7h-43.81c-1.55,0-2.58-.68-2.58-1.7V78.31c0-1.02,1.03-1.7,2.58-1.7h43.81c1.55,0,2.58.68,2.58,1.7v30.64h2.58c2.06-9.87,4.12-34.05,26.8-34.05,27.32,0,27.32,33.71,27.32,56.18Z"/>
  <path class="cls-1" d="M317.59,131.09v139.6c0,1.02-1.03,1.7-2.58,1.7h-43.81c-1.55,0-2.58-.68-2.58-1.7v-28.94h-2.58c-1.55,9.87-2.58,32.35-28.35,32.35-28.35,0-28.35-27.24-28.35-44.94v-30.3c0-22.81,16.49-32.35,35.05-36.77l24.22-5.79v-49.03h-10.31v43.24c0,1.02-1.03,1.7-2.58,1.7h-43.81c-1.55,0-2.58-.68-2.58-1.7v-19.41c0-37.45,0-54.48,41.23-54.48h25.77c41.23,0,41.23,17.02,41.23,54.48ZM268.63,231.53v-48.35l-10.31,2.38v45.97h10.31Z"/>
  <path class="cls-1" d="M440.72,119.85v150.84c0,1.02-1.03,1.7-2.58,1.7h-43.81c-1.55,0-2.58-.68-2.58-1.7V117.47h-10.31v153.22c0,1.02-1.03,1.7-2.58,1.7h-43.81c-1.55,0-2.58-.68-2.58-1.7V78.31c0-1.02,1.03-1.7,2.58-1.7h43.81c1.55,0,2.58.68,2.58,1.7v28.94h2.58c1.55-9.87,2.58-32.35,28.35-32.35,28.35,0,28.35,27.24,28.35,44.94Z"/>
  <path class="cls-1" d="M514.68,107.25h-10.31v134.49h10.31v-61.97c0-1.02,1.03-1.7,2.58-1.7h43.81c1.55,0,2.58.68,2.58,1.7v38.14c0,37.45,0,54.48-41.23,54.48h-25.77c-41.23,0-41.23-17.02-41.23-54.48v-86.83c0-37.45,0-54.48,41.23-54.48h25.77c41.23,0,41.23,17.02,41.23,54.48v38.48c0,1.02-1.03,1.7-2.58,1.7h-43.81c-1.55,0-2.58-.68-2.58-1.7v-62.31Z"/>
  <path class="cls-1" d="M686.37,131.09v86.83c0,37.45,0,54.48-41.23,54.48h-25.77c-41.23,0-41.23-17.02-41.23-54.48v-86.83c0-37.45,0-54.48,41.23-54.48h25.77c41.23,0,41.23,17.02,41.23,54.48ZM637.4,107.25h-10.31v134.49h10.31V107.25Z"/>
  <path class="cls-1" d="M703.47,272.39c-1.55,0-2.58-.68-2.58-1.7V1.7c0-1.02,1.03-1.7,2.58-1.7h40.72c1.55,0,3.09.68,3.09,1.7l23.19,131.09h2.58V1.7c0-1.02,1.03-1.7,2.58-1.7h51.54c1.55,0,2.58.68,2.58,1.7v268.99c0,1.02-1.03,1.7-2.58,1.7h-40.72c-1.55,0-3.09-.68-3.09-1.7l-28.35-144.71h-2.58v144.71c0,1.02-1.03,1.7-2.58,1.7h-46.39Z"/>
  <path class="cls-1" d="M955.04,0c1.55,0,2.58.68,2.58,1.7v216.21c0,37.45,0,54.48-41.23,54.48h-30.92c-41.23,0-41.23-17.02-41.23-54.48v-35.75c0-1.02,1.03-1.7,2.58-1.7h46.39c1.55,0,2.58.68,2.58,1.7v59.59h10.31V1.7c0-1.02,1.03-1.7,2.58-1.7h46.39Z"/>
  <path class="cls-1" d="M1080.34,131.09v139.6c0,1.02-1.03,1.7-2.58,1.7h-43.81c-1.55,0-2.58-.68-2.58-1.7v-28.94h-2.58c-1.55,9.87-2.58,32.35-28.35,32.35-28.35,0-28.35-27.24-28.35-44.94v-30.3c0-22.81,16.49-32.35,35.05-36.77l24.22-5.79v-49.03h-10.31v43.24c0,1.02-1.03,1.7-2.58,1.7h-43.81c-1.55,0-2.58-.68-2.58-1.7v-19.41c0-37.45,0-54.48,41.23-54.48h25.77c41.23,0,41.23,17.02,41.23,54.48ZM1031.37,231.53v-48.35l-10.31,2.38v45.97h10.31Z"/>
</svg>